<svg width="20" height="20" xmlns="http://www.w3.org/2000/svg" fill="none">

 <g>
  <title>Layer 1</title>
  <path id="svg_1" fill="black" d="m7.2781,6.4004l-5.14559,-5.14847l3.54759,0c0.3461,0 0.6246,-0.27851 0.6246,-0.62456c0,-0.34604 -0.2785,-0.62456 -0.6246,-0.62456l-5.05554,-0.00281c-0.16599,0 -0.32355,0.06472 -0.4417,0.18286c-0.11814,0.11815 -0.18286,0.27571 -0.18286,0.4417l0,5.05844c0,0.3432 0.27852,0.6245 0.62456,0.6245c0.34604,0 0.62456,-0.2785 0.62456,-0.6245l0,-3.54768l5.14558,5.14838c0.121,0.121 0.2813,0.1829 0.4417,0.1829c0.1604,0 0.3208,-0.0619 0.4417,-0.1829c0.2447,-0.2447 0.2447,-0.6386 0,-0.8833z"/>
  <path id="svg_2" fill="black" d="m19.803,0.18482c-0.1181,-0.11815 -0.2757,-0.18287 -0.4417,-0.18287l-5.0556,0c-0.346,0 -0.6245,0.27852 -0.6245,0.62456c0,0.34605 0.2785,0.62457 0.6245,0.62457l3.5477,0l-5.1485,5.14562c-0.2447,0.2448 -0.2447,0.6386 0,0.8834c0.1238,0.1237 0.2814,0.1828 0.4417,0.1828c0.1604,0 0.3208,-0.0619 0.4417,-0.1828l5.1484,-5.14563l0,3.54763c0,0.346 0.2786,0.6246 0.6246,0.6246c0.3461,0 0.6246,-0.2786 0.6246,-0.6246l0,-5.05559c0,-0.16599 -0.0647,-0.32354 -0.1829,-0.44169z"/>
  <path id="svg_3" fill="black" d="m19.3613,13.6922c-0.346,0 -0.6246,0.2785 -0.6246,0.6245l0,3.5476l-5.1484,-5.1456c-0.2447,-0.2447 -0.6386,-0.2447 -0.8834,0c-0.2447,0.2448 -0.2447,0.6387 0,0.8834l5.1456,5.1484l-3.5448,0c-0.346,0 -0.6245,0.2786 -0.6245,0.6246c0,0.346 0.2785,0.6246 0.6245,0.6246l5.0556,0c0.3461,0 0.6246,-0.2786 0.6246,-0.6246l0,-5.0556c0,-0.346 -0.2785,-0.6273 -0.6246,-0.6273z"/>
  <path id="svg_4" fill="black" d="m7.2781,12.7187c-0.2419,-0.2447 -0.6386,-0.2447 -0.8806,0l-5.14838,5.1456l0,-3.5448c0,-0.346 -0.27852,-0.6245 -0.62456,-0.6245c-0.34604,0 -0.62456,0.2785 -0.62456,0.6245l0,5.0556c0,0.166 0.06472,0.3236 0.18286,0.4417c0.11815,0.1181 0.27571,0.1829 0.4417,0.1829l5.05554,0c0.3461,0 0.6246,-0.2786 0.6246,-0.6246c0,-0.346 -0.2785,-0.6246 -0.6246,-0.6246l-3.54759,0l5.14559,-5.1484c0.2447,-0.2447 0.2447,-0.6386 0,-0.8834z"/>
 </g>
</svg>