<svg fill="none" height="20" viewBox="0 0 20 20" width="20" xmlns="http://www.w3.org/2000/svg"><path d="m10.1884 19.612c5.4185 0 9.811-4.3903 9.811-9.806s-4.3925-9.806-9.811-9.806c-5.41842 0-9.810959 4.3903-9.810959 9.806s4.392539 9.806 9.810959 9.806z" fill="#f9d423"/><g fill="#f9b53d"><path d="m19.5812 12.205c-.3305 1.5549-1.0306 3.0074-2.041 4.2345-1.0105 1.2272-2.3016 2.193-3.7641 2.8158-1.4626.6227-3.0536.8842-4.63856.7621-1.58494-.122-3.11719-.6239-4.46717-1.4632-1.34999-.8394-2.47801-1.9914-3.28868-3.3588-.810675-1.3674-1.280155-2.9099-1.3687445-4.497-.088589-1.5872.2063185-3.17236.8597855-4.62146.653469-1.44911 1.646279-2.71955 2.894469-3.70389-.15078.68812-.22656 1.39055-.226 2.095.0051 1.85779.53284 3.67667 1.52289 5.24868.99004 1.57197 2.40244 2.83377 4.07573 3.64087 1.67328.8072 3.53998 1.1273 5.38658.9236 1.8466-.2036 3.5986-.9227 5.0558-2.0752z"/><path d="m10.1884 16.612c3.7617 0 6.811-3.0472 6.811-6.806 0-3.75885-3.0493-6.806-6.811-6.806-3.76157 0-6.81096 3.04715-6.81096 6.806 0 3.7588 3.04939 6.806 6.81096 6.806z"/><path d="m9.26542 18.1324c4.09128 0 7.40798-3.3167 7.40798-7.408 0-4.09132-3.3167-7.40799-7.40798-7.40799-4.09132 0-7.408 3.31667-7.408 7.40799 0 4.0913 3.31668 7.408 7.408 7.408z"/></g><path d="m17.4083 9.80828c0 1.91482-.7607 3.75132-2.1147 5.10532s-3.1904 2.1147-5.1053 2.1147c-1.91487 0-3.7513-.7607-5.10532-2.1147-1.35401-1.354-2.11469-3.1905-2.11469-5.10532-.00377-1.26246.33009-2.50297.967-3.593.49623 2.24592 1.74418 4.25522 3.53745 5.69552 1.79328 1.4403 4.02446 2.2254 6.32456 2.2255.6153-.0026 1.2291-.0605 1.834-.173.6968-1.4787.8706-3.1502.4929-4.74056-.3776-1.59039-1.2843-3.0053-2.5715-4.01284s-2.8784-1.54793-4.51298-1.5326c-1.63454.01533-3.21538.58547-4.48343 1.61698.93571-1.16559 2.21007-2.01208 3.64727-2.4227s2.96644-.36514 4.37664.13019c1.4103.49532 2.6321 1.41606 3.4968 2.6352.8648 1.21915 1.33 2.6766 1.3313 4.17131z" fill="#fc913a"/><path d="m10.1813 4.6543 1.444 2.926 3.23.47-2.339 2.277.552 3.217-2.889-1.519-2.88698 1.519.552-3.217-2.337-2.273 3.229-.47z" fill="#f9d423"/><path d="m8.66536 12.7585-1.326.7.25199-1.437c.34317.2666.70179.5127 1.07401.737z" fill="#f9b53d"/></svg>