<svg xmlns="http://www.w3.org/2000/svg" width="17.986" height="23.612" viewBox="0 0 17.986 23.612">
    <g transform="translate(-61)">
        <g transform="translate(61)">
            <path
                d="M73.712,9.353a10.127,10.127,0,0,0,3.876-7.969h1.4V0H61V1.384h1.4a10.127,10.127,0,0,0,3.876,7.969c1.05.957,1.644,1.543,1.644,2.453s-.594,1.5-1.644,2.453A10.127,10.127,0,0,0,62.4,22.229H61v1.384H78.986V22.229h-1.4a10.127,10.127,0,0,0-3.876-7.969c-1.05-.957-1.644-1.543-1.644-2.453S72.662,10.31,73.712,9.353ZM69.3,16.991a3.5,3.5,0,0,0-.631.193l-4.237,1.753a9.439,9.439,0,0,1,2.772-3.656c1.078-.983,2.1-1.911,2.1-3.476Zm3.479-1.71a9.439,9.439,0,0,1,2.772,3.656l-4.237-1.753a3.5,3.5,0,0,0-.631-.193V11.806C70.685,13.371,71.7,14.3,72.78,15.282ZM64.409,4.612a10.25,10.25,0,0,1-.626-3.228H76.2a10.249,10.249,0,0,1-.626,3.228Z"
                transform="translate(-61)" />
        </g>
    </g>
</svg>