<svg xmlns="http://www.w3.org/2000/svg" width="32" height="32">
    <path fill="#af1e57"
        d="M29.958 6.12H2.042A2.044 2.044 0 000 8.162V23.84a2.044 2.044 0 002.042 2.042h27.916A2.044 2.044 0 0032 23.839V8.162a2.044 2.044 0 00-2.042-2.042zm0 18.486H2.042a.768.768 0 01-.767-.767V8.162a.768.768 0 01.767-.767h27.916a.768.768 0 01.767.767V23.84a.768.768 0 01-.767.768z" />
    <path fill="#af1e57"
        d="M27.814 11.402h-8.376a.637.637 0 000 1.275h8.376a.637.637 0 100-1.275zM27.814 15.495h-8.376a.637.637 0 000 1.275h8.376a.637.637 0 100-1.275zM27.848 19.588h-.5a.637.637 0 000 1.275h.5a.637.637 0 000-1.275zM24.924 19.588h-5.487a.637.637 0 000 1.275h5.487a.637.637 0 000-1.275zM10.062 16.629a5.424 5.424 0 00-5.568 5.254.637.637 0 00.637.637h9.856a.637.637 0 00.637-.637 5.424 5.424 0 00-5.562-5.254zm-.685 4.617H5.824a4.157 4.157 0 013.553-3.29zm1.275 0v-3.3a4.166 4.166 0 013.648 3.3zM10.008 9.38a3.315 3.315 0 103.315 3.315 3.319 3.319 0 00-3.315-3.315zm0 5.355a2.04 2.04 0 112.04-2.04 2.042 2.042 0 01-2.04 2.04z" />
    <path style="fill:none" d="M0 0h32v32H0z" />
</svg>