<svg xmlns="http://www.w3.org/2000/svg" width="26" height="26" viewBox="0 0 26 26">
    <g transform="translate(-7 -7)">
        <g transform="translate(7 8)">
            <path fill="#eb3003"
                d="M89.25,82.529H73.76a3.187,3.187,0,0,0-6.058,0H65.284a1.025,1.025,0,0,0,0,2.049H67.7a3.187,3.187,0,0,0,6.058,0H89.25a1.025,1.025,0,0,0,0-2.049Zm-18.519,2.2a1.17,1.17,0,1,1,1.162-1.17A1.167,1.167,0,0,1,70.731,84.724Z"
                transform="translate(-64.267 -80.334)" />
            <path fill="#eb3003"
                d="M89.25,211.062H86.832a3.187,3.187,0,0,0-6.058,0H65.284a1.025,1.025,0,0,0,0,2.049h15.49a3.187,3.187,0,0,0,6.058,0H89.25a1.025,1.025,0,0,0,0-2.049Zm-5.447,2.2a1.17,1.17,0,1,1,1.162-1.17A1.167,1.167,0,0,1,83.8,213.257Z"
                transform="translate(-64.267 -200.087)" />
            <path fill="#eb3003"
                d="M89.25,339.6H78.117a3.187,3.187,0,0,0-6.058,0H65.284a1.025,1.025,0,0,0,0,2.049h6.775a3.187,3.187,0,0,0,6.058,0H89.25a1.025,1.025,0,0,0,0-2.049Zm-14.162,2.2a1.17,1.17,0,1,1,1.162-1.17A1.167,1.167,0,0,1,75.088,341.79Z"
                transform="translate(-64.267 -319.839)" />
        </g>
        <rect fill="none" width="26" height="26" transform="translate(7 7)" />
    </g>
</svg>