<svg height="62" viewBox="0 0 62 62" width="62" xmlns="http://www.w3.org/2000/svg"><path d="m70 299.1 10.254-27.845 9.746 27.845" fill="none" stroke="#ff5503" stroke-linecap="round" stroke-linejoin="round" stroke-width="3" transform="translate(-34.479 -252.702)"/><path d="m415.536 115.955a3.657 3.657 0 0 1 1.017.151l6.09-7.465a1.121 1.121 0 0 1 1.582-.163 1.091 1.091 0 0 1 .138 1.532l-6.021 7.383a3.448 3.448 0 0 1 -1.388 5.167h23.626a1.57 1.57 0 0 0 1.57-1.57v-19.87a1.57 1.57 0 0 0 -1.57-1.57h-30.01a1.57 1.57 0 0 0 -1.57 1.57v13.046l1.419 1.8h5.117z" fill="#3e7ce4" transform="translate(-381.149 -91.521)"/><g fill="#ff5604"><circle cx="13.638" cy="9.429" r="6.429"/><path d="m19.23 296.948a1.57 1.57 0 0 1 -1.57 1.57h-2.636a1.57 1.57 0 0 1 -1.57-1.57v-13.159a.841.841 0 0 0 -.841-.841.841.841 0 0 0 -.841.841v13.1a1.637 1.637 0 0 1 -1.632 1.632h-2.581a1.57 1.57 0 0 1 -1.57-1.57l-.012-31.771a.778.778 0 0 0 -.777-.78.778.778 0 0 0 -.779.778v12.222a1.57 1.57 0 0 1 -1.57 1.57h-1.281a1.57 1.57 0 0 1 -1.57-1.57v-16.75a3.6 3.6 0 0 1 3.6-3.6h14.3a5.037 5.037 0 0 1 3.936 1.9l3.842 4.847.81 1.023s3.641 0 5.738.006a1.57 1.57 0 0 1 1.57 1.57v1.249a1.57 1.57 0 0 1 -1.57 1.57h-6.799a2.187 2.187 0 0 1 -1.72-.835l-2.863-3.68a.782.782 0 0 0 -.615-.3h-.195a.778.778 0 0 0 -.778.778z" transform="translate(1 -239.518)"/></g></svg>