<svg xmlns="http://www.w3.org/2000/svg" width="34" height="34">
    <path fill="#eba403"
        d="M31.613 14.641h-2.17V3.179A2.389 2.389 0 0027.057.792H12.2a.664.664 0 000 1.328h14.857a1.06 1.06 0 011.058 1.059v8.341l-3.529-2.515a.664.664 0 00-.787.011l-3.905 2.96-6.207-5.173a.664.664 0 00-.843-.006L5.3 12.912V3.179A1.061 1.061 0 016.356 2.12a.664.664 0 000-1.328 2.391 2.391 0 00-2.38 2.387v12.734A2.39 2.39 0 006.363 18.3h7.657v1.913H2.387A2.389 2.389 0 000 22.6v8.222a2.39 2.39 0 002.387 2.387h12.634a2.389 2.389 0 002.387-2.387v-2.355h8.269a.664.664 0 100-1.328h-8.269v-4.54a2.413 2.413 0 00-2.06-2.364v-3.206a1.06 1.06 0 011.058-1.062h15.207a1.06 1.06 0 011.059 1.059v9.055a1.06 1.06 0 01-1.059 1.059h-.1a.664.664 0 100 1.328h.1A2.39 2.39 0 0034 26.084v-9.055a2.39 2.39 0 00-2.387-2.387zM16.08 30.821a1.06 1.06 0 01-1.059 1.059H2.387a1.06 1.06 0 01-1.059-1.059V22.6a1.06 1.06 0 011.059-1.059h12.3a1.788 1.788 0 01.79.1 1.069 1.069 0 01.608.958v8.222zm.326-16.18a2.413 2.413 0 00-2.386 2.326H6.361A1.06 1.06 0 015.3 15.913v-1.292l7.954-6.448 7.761 6.468h-4.609zm6.686 0l-2.151-1.792 3.271-2.482 3.9 2.782v1.49z" />
    <path fill="#eba403"
        d="M9.09 2.07a.664.664 0 10-.4-.743.67.67 0 00.4.743zM22.094 25.919h1.894a.664.664 0 00.632-.461l.673-2.092 2.916.464a.664.664 0 00.769-.656v-2.149h.127a.664.664 0 000-1.328h-.127v-1.839a.664.664 0 00-.769-.656l-6.168.982H20.36a1.442 1.442 0 00-1.44 1.44v1.784a1.442 1.442 0 001.44 1.44h1.069v2.407a.664.664 0 00.665.664zm1.41-1.328h-.746v-1.629l.131.021 1.077.172zm4.146-2.194l-4.892-.779v-2.2l4.892-.779zm-7.4-.988v-1.784a.112.112 0 01.112-.112h1.069v2.007h-1.069a.112.112 0 01-.113-.112zM28.945 27.255a.664.664 0 10.256.776.671.671 0 00-.256-.776zM11.364 25.956l-4.051-2.173a.67.67 0 00-.978.585v4.639a.67.67 0 001.009.567l4.051-2.466a.664.664 0 00-.031-1.152zm-3.7 1.873v-2.348l2.05 1.1zM22.151 5.835a2.28 2.28 0 10-2.28 2.28 2.282 2.282 0 002.28-2.28zm-3.231 0a.951.951 0 11.951.951.953.953 0 01-.949-.951z" />
    <path style="fill:none" d="M0 0h34v34H0z" />
</svg>