<svg xmlns="http://www.w3.org/2000/svg" width="32" height="32">
    <path fill="#af1e57"
        d="M18 12l-3.057 5.35-1.61-2.683-4 6.667h14zm-4.571 8h-1.74l1.645-2.742.852 1.419zm1.535 0L18 14.687 21.035 20z" />
    <path fill="#af1e57"
        d="M26.336 5.333H25V4h-1.333V0h-1.331v4H21v1.333h-9.333V4h-1.331V0H9v4H7.667v1.333H5V32h22.667V5.333zm-4 0h1.334v1.334h-1.334zm-13.333 0h1.333v1.334H9zm17.333 25.333h-20v-24H7.67V8h4V6.667h9.333V8h4V6.667h1.333z" />
    <path fill="#af1e57"
        d="M19 26.666h-5.333a.667.667 0 100 1.334H19a.667.667 0 000-1.334zM21.667 24H11a.667.667 0 100 1.333h10.667a.667.667 0 000-1.333z" />
    <path style="fill:none" d="M0 0h32v32H0z" />
</svg>