<?xml version="1.0" encoding="UTF-8"?>
<svg viewBox="0 0 34 34" xmlns="http://www.w3.org/2000/svg">
    <path fill="#eba403"
        d="M33.805,6.237,27.762.195A.664.664,0,0,0,27.293,0H7.57A1.994,1.994,0,0,0,5.578,1.992V3.258A8.786,8.786,0,0,0,0,11.428a.664.664,0,0,0,.664.664H8.772a.664.664,0,0,0,.664-.664V3.32a.664.664,0,0,0-.664-.664,8.768,8.768,0,0,0-1.865.2V1.992a.665.665,0,0,1,.664-.664H26.629V5.379a1.994,1.994,0,0,0,1.992,1.992h4.051V32.008a.665.665,0,0,1-.664.664H7.57a.665.665,0,0,1-.664-.664V26.319a.664.664,0,1,0-1.328,0v5.689A1.994,1.994,0,0,0,7.57,34H32.008A1.994,1.994,0,0,0,34,32.008V6.706A.664.664,0,0,0,33.805,6.237ZM8.108,4.014v6.75H1.357A7.456,7.456,0,0,1,8.108,4.014ZM28.621,6.043a.665.665,0,0,1-.664-.664V2.267l3.776,3.776Z" />
    <g transform="translate(5.578 23.242)">
        <path fill="#eba403" transform="translate(-84 -350)"
            d="M85.133,350.195a.663.663,0,1,0,.195.469A.668.668,0,0,0,85.133,350.195Z" />
    </g>
    <g transform="translate(2.379 5.035)">
        <path fill="#eba403" transform="translate(-35.819 -75.819)"
            d="M44.591,75.819a.664.664,0,0,0-.664.664v7.443H36.483a.664.664,0,0,0-.664.664,8.772,8.772,0,1,0,8.772-8.772Zm.664,1.358a7.41,7.41,0,0,1,4.106,1.7l-4.106,4.106Zm-.664,14.858a7.454,7.454,0,0,1-7.414-6.779h7.414a.662.662,0,0,0,.469-.194h0l5.24-5.24a7.44,7.44,0,0,1-5.71,12.214Z" />
    </g>
    <g transform="translate(10.22 20.958)">
        <path fill="#eba403" transform="translate(-153.9 -315.6)"
            d="M172.776,315.605a1.992,1.992,0,0,0-1.835,2.769l-3.826,3.826a1.989,1.989,0,0,0-1.72-.009l-2.541-2.541a1.992,1.992,0,1,0-3.664.109l-2.437,2.437a1.992,1.992,0,1,0,.94.938l2.423-2.423a1.986,1.986,0,0,0,1.866-.054l2.469,2.469a1.992,1.992,0,1,0,3.6.019l3.79-3.79a1.992,1.992,0,1,0,.937-3.75ZM155.9,324.658a.664.664,0,1,1,.459-1.142l.008.008.01.009a.663.663,0,0,1-.477,1.125Zm5.1-5.069a.664.664,0,1,1,.664-.664A.665.665,0,0,1,161,319.589Zm5.246,5.066a.664.664,0,1,1,.664-.664A.665.665,0,0,1,166.245,324.656Zm6.53-6.394a.664.664,0,1,1,.664-.664A.665.665,0,0,1,172.775,318.261Z" />
    </g>
    <g transform="translate(21.603 15.605)">
        <path fill="#eba403" transform="translate(-325.31 -235)"
            d="M329.48,235h-3.5a.664.664,0,0,0,0,1.328h3.5a.664.664,0,0,0,0-1.328Z" />
    </g>
    <g transform="translate(28.131 15.605)">
        <path fill="#eba403" transform="translate(-423.62 -235)"
            d="M424.753,235.195a.663.663,0,1,0,.195.469A.669.669,0,0,0,424.753,235.195Z" />
    </g>
    <g transform="translate(21.603 9.23)">
        <path fill="#eba403" transform="translate(-325.31 -139)"
            d="M334.087,139h-8.112a.664.664,0,0,0,0,1.328h8.112a.664.664,0,0,0,0-1.328Z" />
    </g>
    <g transform="translate(21.603 12.418)">
        <path fill="#eba403" transform="translate(-325.31 -187)"
            d="M334.087,187h-8.112a.664.664,0,0,0,0,1.328h8.112a.664.664,0,0,0,0-1.328Z" />
    </g>
</svg>
