<svg xmlns="http://www.w3.org/2000/svg" width="32" height="32" viewBox="0 0 32 32">
    <g transform="translate(-69.664)">
        <rect fill="none" width="32" height="32" transform="translate(69.664)" />
        <g transform="translate(74.808 5.147)">
            <g transform="translate(-0.997 -1)">
                <path fill="#af1e57"
                    d="M8.839,186.822l-2.793,2.793a2.963,2.963,0,0,1-4.191-4.19l5.588-5.588a2.962,2.962,0,0,1,4.19,0,.988.988,0,0,0,1.4-1.4,4.938,4.938,0,0,0-6.983,0L.458,184.028a4.938,4.938,0,1,0,6.984,6.983l2.793-2.793a.988.988,0,1,0-1.4-1.4Z"
                    transform="translate(0.989 -168.753)" />
                <path fill="#af1e57"
                    d="M203.359,7.438A4.938,4.938,0,0,0,196.375.455l-3.352,3.352a.988.988,0,1,0,1.4,1.4l3.351-3.351a2.963,2.963,0,0,1,4.191,4.19l-6.146,6.146a2.962,2.962,0,0,1-4.19,0,.988.988,0,1,0-1.4,1.4,4.938,4.938,0,0,0,6.983,0Z"
                    transform="translate(-181.1 0.992)" />
                <path fill="#af1e57"
                    d="M363.367,361.967a.988.988,0,0,0-1.4,1.4l2.962,2.962a.988.988,0,1,0,1.4-1.4Z"
                    transform="translate(-344.889 -344.886)" />
                <path fill="#af1e57"
                    d="M44.909,46.3a.988.988,0,1,0,1.4-1.4l-2.965-2.965a.988.988,0,0,0-1.4,1.4Z"
                    transform="translate(-39.68 -39.677)" />
                <path fill="#af1e57"
                    d="M408.288,319h-2.963a.988.988,0,0,0,0,1.975h2.963a.988.988,0,1,0,0-1.975Z"
                    transform="translate(-385.57 -304.184)" />
                <path fill="#af1e57"
                    d="M149.325,3.939a.988.988,0,0,0,.988-.988V-.012A.988.988,0,0,0,149.325-1a.988.988,0,0,0-.988.988V2.951A.988.988,0,0,0,149.325,3.939Z"
                    transform="translate(-141.423 1)" />
                <path fill="#af1e57"
                    d="M-.009,150.309H2.954a.988.988,0,0,0,0-1.975H-.009a.988.988,0,0,0-.988.988A.988.988,0,0,0-.009,150.309Z"
                    transform="translate(0.997 -141.42)" />
                <path fill="#af1e57"
                    d="M319.991,404.333a.988.988,0,0,0-.988.988v2.963a.988.988,0,1,0,1.975,0v-2.963A.988.988,0,0,0,319.991,404.333Z"
                    transform="translate(-304.187 -385.566)" />
            </g>
        </g>
    </g>
</svg>