<svg xmlns="http://www.w3.org/2000/svg" width="20" height="20" viewBox="0 0 20 20">
    <g transform="translate(-0.004 0)">
        <path fill="#fff"
            d="M142.829,5.816,137.412.191a.625.625,0,0,0-1.075.434V3.334h-.208A8.134,8.134,0,0,0,128,11.459v1.25a.617.617,0,0,0,.487.6.558.558,0,0,0,.137.017.647.647,0,0,0,.571-.356,6.835,6.835,0,0,1,6.148-3.8h.99v2.708a.625.625,0,0,0,1.075.433l5.417-5.625A.625.625,0,0,0,142.829,5.816Zm0,0"
            transform="translate(-123 0)" />
        <path fill="#fff"
            d="M17.5,102.006H2.5a2.5,2.5,0,0,1-2.5-2.5V87.84a2.5,2.5,0,0,1,2.5-2.5H5a.833.833,0,0,1,0,1.667H2.5a.834.834,0,0,0-.833.833V99.506a.834.834,0,0,0,.833.833h15a.834.834,0,0,0,.833-.833V92.84a.833.833,0,1,1,1.667,0v6.667A2.5,2.5,0,0,1,17.5,102.006Zm0,0"
            transform="translate(0 -82.006)" />
    </g>
</svg>