<svg xmlns="http://www.w3.org/2000/svg" width="32" height="32">
    <path style="fill:none" d="M0 0h32v32H0z" />
    <g transform="translate(1.111 1.091)">
        <path fill="#af1e57" stroke="#af1e57" stroke-width="0.4px"
            d="M12.5 21.307a10.727 10.727 0 01-1.34.086 10.217 10.217 0 01-5.078-1.354.464.464 0 00-.351-.046L1.138 21.2l1.238-4.537a.464.464 0 00-.039-.355 10.217 10.217 0 1118.954-6.455c.019.137.033.274.046.411a.466.466 0 00.929-.081c-.014-.151-.03-.3-.049-.448a11.146 11.146 0 10-20.789 6.872L.035 21.734a.464.464 0 00.444.587.415.415 0 00.121-.016l5.19-1.365a11.146 11.146 0 005.373 1.382 11.318 11.318 0 001.461-.1.468.468 0 10-.124-.922z" />
        <path fill="#af1e57" stroke="#af1e57" stroke-width="0.4px"
            d="M11.16 5.027a3.251 3.251 0 00-3.251 3.251.465.465 0 10.929 0 2.322 2.322 0 014.644 0 2.987 2.987 0 01-1.117 2.09 4.98 4.98 0 00-1.67 3.648.465.465 0 10.929 0 4.04 4.04 0 011.426-3.019 3.8 3.8 0 001.359-2.715 3.251 3.251 0 00-3.251-3.255z" />
        <circle fill="#af1e57" stroke="#af1e57" stroke-width="0.4px" cx=".522" cy=".522" r=".522"
            transform="translate(10.637 15.815)" />
        <path fill="#af1e57" stroke="#af1e57" stroke-width="0.4px"
            d="M27.193 16.053l.776-.929.464.376a.464.464 0 00.587-.717l-.815-.671-.834-.683a.465.465 0 00-.587.72l.464.388-.764.936a7.839 7.839 0 00-4.18-1.5V12.57h1.393a.465.465 0 100-.929h-3.714a.465.465 0 100 .929h1.395v1.407a7.906 7.906 0 105.8 2.09zm-5.352 12.771a6.966 6.966 0 116.966-6.966 6.966 6.966 0 01-6.966 6.966z" />
        <path fill="#af1e57" stroke="#af1e57" stroke-width="0.4px"
            d="M22.305 20.601v-3.834a.465.465 0 10-.929 0v3.834a1.34 1.34 0 000 2.512v.181a.465.465 0 10.929 0v-.181a1.34 1.34 0 000-2.512zm-.464 1.667a.411.411 0 11.411-.411.411.411 0 01-.411.411z" />
    </g>
</svg>