<svg xmlns="http://www.w3.org/2000/svg" width="57" height="56"><defs><style>.b{fill:#333}</style></defs><g transform="translate(.116)"><ellipse cx="28.5" cy="28" rx="28.5" ry="28" transform="translate(-.116)" fill="#e2e2e2"/><path class="b" d="M40.061 17.985a.68.68 0 10.68.68.681.681 0 00-.68-.68z"/><path class="b" d="M43.578 17.304a8.473 8.473 0 00-6.393-2.83 9.96 9.96 0 00-7.172 3.023 12.074 12.074 0 00-1.555 1.92 12.083 12.083 0 00-1.558-1.925 9.96 9.96 0 00-7.17-3.023c-5.2 0-8.83 4.318-8.83 9.452 0 6.935 7.407 12.774 17.109 21.115a.69.69 0 00.9 0c9.724-8.361 17.109-14.19 17.109-21.115a9.865 9.865 0 00-2.44-6.617zm-15.12 26.317c-9.158-7.864-16.186-13.517-16.186-19.7 0-4.613 3.206-8.091 7.459-8.091a8.5 8.5 0 016.164 2.586 10.143 10.143 0 011.938 2.654.686.686 0 00.625.4.687.687 0 00.626-.4 10.144 10.144 0 011.938-2.654 8.495 8.495 0 016.164-2.586c4.252 0 7.459 3.478 7.459 8.091-.001 6.327-7.49 12.234-16.187 19.7z"/><path class="b" d="M42.441 20.409a.68.68 0 00-1.205.632 6.308 6.308 0 01.7 2.88c0 1.966-.936 4.053-2.945 6.567a.68.68 0 101.063.85c2.212-2.769 3.243-5.125 3.243-7.417a7.587 7.587 0 00-.856-3.512z"/><path d="M33.991 27.927h-3.227V24.7a.576.576 0 00-.576-.576h-3.459a.576.576 0 00-.576.576v3.227h-3.227a.576.576 0 00-.576.576v3.458a.576.576 0 00.576.576h3.223v3.227a.576.576 0 00.576.576h3.458a.576.576 0 00.576-.576v-3.227h3.227a.576.576 0 00.576-.576v-3.458a.576.576 0 00-.571-.576zm-.576 3.458h-3.227a.576.576 0 00-.576.576v3.226h-2.305V31.96a.576.576 0 00-.576-.576h-3.227v-2.305h3.227a.576.576 0 00.576-.576v-3.227h2.305v3.227a.576.576 0 00.576.576h3.227z" fill="#ff0808"/></g></svg>