<svg xmlns="http://www.w3.org/2000/svg" width="56" height="56"><defs/><g transform="translate(-.494)"><circle cx="28" cy="28" r="28" transform="translate(.494)" fill="#e2e2e2"/><path class="b" d="M33.163 37.752l-3.506 1.768a3.067 3.067 0 00-2.604-1.468h-3.358a3.437 3.437 0 01-1.494-.335l-.347-.164a6.124 6.124 0 00-5.525.088v-.611a.59.59 0 00-.562-.595h-2.98a.567.567 0 00-.533.595v8.082a.569.569 0 00.533.6h2.976a.593.593 0 00.562-.6v-.33l.893-.51a1.546 1.546 0 011.148-.158l5.753 1.446.037.008a6.216 6.216 0 001.105.1 6.3 6.3 0 002.785-.648.531.531 0 00.069-.04l8.131-5.583a.562.562 0 00.163-.753 2.443 2.443 0 00-3.246-.892zm-17.958 6.833h-1.826v-7.026h1.826zm12.313-.557a5.164 5.164 0 01-3.138.437l-5.735-1.441a2.664 2.664 0 00-1.98.272l-.335.191v-4.535a5 5 0 015.035-.382l.347.16a4.574 4.574 0 001.983.447h3.358a1.909 1.909 0 011.852 1.405h-4.876a.562.562 0 000 1.124h5.521a.569.569 0 00.562-.571 3.115 3.115 0 00-.05-.551l3.615-1.834.013-.008a1.32 1.32 0 011.4.088zm0 0M44.041 10.368h-4.39a.533.533 0 00-.562.527v.33l-.893.51a1.544 1.544 0 01-1.148.158l-5.749-1.446-.037-.007a6.3 6.3 0 00-3.891.549.575.575 0 00-.069.04l-8.13 5.583a.562.562 0 00-.164.753 2.442 2.442 0 003.251.894l3.506-1.768a3.067 3.067 0 002.6 1.465h3.359a3.443 3.443 0 011.494.335l.346.164a6.154 6.154 0 002.683.616 6.2 6.2 0 002.842-.7v.61a.59.59 0 00.562.594h4.386a.567.567 0 00.533-.594v-8.086a.509.509 0 00-.533-.527zm-9.982 7.072l-.346-.16a4.579 4.579 0 00-1.983-.447h-3.359a1.908 1.908 0 01-1.852-1.405h4.876a.562.562 0 100-1.124h-5.522a.569.569 0 00-.562.571 3.116 3.116 0 00.05.551l-3.616 1.832-.013.008a1.32 1.32 0 01-1.4-.088l7.572-5.2a5.164 5.164 0 013.139-.437l5.734 1.441a2.665 2.665 0 001.98-.272l.335-.192v4.538a5 5 0 01-5.033.384zm9.392 1.008h-3.232v-6.956h3.232zm0 0"/><path class="b" d="M41.857 17.98a1.616 1.616 0 10-1.616-1.616 1.616 1.616 0 001.616 1.616zm0-2.108a.492.492 0 11-.492.492.492.492 0 01.492-.492zm0 0M27.712 18.481a9.523 9.523 0 109.523 9.523 9.534 9.534 0 00-9.523-9.523zm0 17.922a8.4 8.4 0 118.4-8.4 8.4 8.4 0 01-8.4 8.399zm0 0"/><path d="M30.842 25.334h-1.27a3.25 3.25 0 00-.744-1.546h2.014a.562.562 0 000-1.124h-6.258a.562.562 0 000 1.124h1.791a2.18 2.18 0 012.047 1.546h-3.838a.562.562 0 000 1.124h3.839a2.159 2.159 0 01-2.047 1.616h-1.792a.548.548 0 00-.386.951l4.477 4.227a.563.563 0 00.795-.025.547.547 0 00-.023-.781l-3.45-3.247h.378a3.28 3.28 0 003.2-2.74h1.27a.562.562 0 000-1.124zm0 0" fill="#ff0808"/></g></svg>