<svg xmlns="http://www.w3.org/2000/svg" width="83.134" height="68.274"><defs/><defs/><path d="M17.441 65.035C-1.53 55.516-8.377 20.6 14.118 4.056s69.656 21.7 69.01 39.713-46.716 30.785-65.687 21.266z" style="fill:#ba0606"/><g transform="translate(5.579 2.257)"><path d="M24.613 28.081c-.026.026-.053.026-.106.053a1.12 1.12 0 01-1.244-.079l-2.937-2.356a2.206 2.206 0 01-.953.423l1.376 3.467a2.205 2.205 0 004.155-.159 7.548 7.548 0 00.291-1.72 4.351 4.351 0 00-.582.371z" class="b"/><path d="M13.128 29.405a7.548 7.548 0 01-.291-1.72 4.819 4.819 0 01-.635-6.775 4.341 4.341 0 011.244-1.059c.026 0 .026-.026.053-.026a1.074 1.074 0 011.244.079l1.747 1.4V8.258h-13a2.813 2.813 0 00-2.828 2.805v29.14a2.852 2.852 0 002.832 2.832h13.021V30.543a2.185 2.185 0 01-3.07-.529 1.5 1.5 0 01-.318-.609z" class="c"/><path d="M64.261 8.258H21.517v13.048l1.747-1.376a1.077 1.077 0 011.244-.079c.026.026.053.026.106.053a4.785 4.785 0 011.614 6.59 5.156 5.156 0 01-1.059 1.217 6.333 6.333 0 01-.291 1.72 2.183 2.183 0 01-2.753 1.456 3.558 3.558 0 01-.635-.318v12.489h42.743a2.852 2.852 0 002.832-2.832V11.063a2.774 2.774 0 00-2.804-2.805z" style="fill:#edf4fc"/><path d="M17.68 22.258a2.108 2.108 0 012.62 0l1.217-.953V8.258h-5.028v13.048zM20.75 29.563l-1.377-3.467a1.628 1.628 0 01-.715 0l-1.376 3.467a2.162 2.162 0 01-.768.979v12.492h5.029V30.542a2.053 2.053 0 01-.793-.979z" class="b"/><path d="M63.599 8.258l-1.4-5.293A2.825 2.825 0 0058.732.98L31.575 8.258z" class="e"/><path d="M20.591 43.035l1.032 3.917 4.87-1.323-.688-2.594z" class="f"/><path d="M16.062 43.031l-15.4-15.4v7.119l8.284 8.284zM9.05 8.258H3.494a2.953 2.953 0 00-1.244.291l11.248 11.248a1.08 1.08 0 011.244.106l1.747 1.4v-5.634zM.662 20.856l15.827 15.827v-6.14a2.185 2.185 0 01-3.07-.529 2.379 2.379 0 01-.318-.635 7.548 7.548 0 01-.291-1.72 4.779 4.779 0 01-1.748-3.494L.662 13.737z" class="g"/><circle cx="2.17" cy="2.17" r="2.17" transform="translate(16.833 21.808)" style="fill:#f98fa6"/><path d="M24.614 19.876c-.026-.026-.053-.026-.106-.053a1.12 1.12 0 00-1.244.079l-2.938 2.356a2.125 2.125 0 01.4 3.017 1.881 1.881 0 01-.4.4l2.938 2.356a1.077 1.077 0 001.244.079c.026-.026.053-.026.106-.053a4.785 4.785 0 001.614-6.59 4.876 4.876 0 00-1.614-1.591zM16.833 23.979a2.221 2.221 0 01.847-1.72l-2.938-2.356a1.077 1.077 0 00-1.244-.079c-.026 0-.026.026-.053.026a4.794 4.794 0 00-1.667 6.59 4.579 4.579 0 001.667 1.667c.026 0 .026.026.053.026a1.12 1.12 0 001.244-.079l2.938-2.356a2.221 2.221 0 01-.847-1.72z" class="f"/><path d="M17.679 25.699l-2.938 2.329a1.077 1.077 0 01-1.244.079c-.026 0-.026-.026-.053-.026a4.981 4.981 0 01-.609-.423 6.333 6.333 0 00.291 1.72 2.205 2.205 0 004.155.159l1.376-3.467a1.939 1.939 0 01-.978-.371z" class="b"/><path d="M36.18 43.035H25.805l.688 2.594z" class="e"/><path d="M20.591 43.035H4.155l1.4 5.267a2.825 2.825 0 003.467 1.985l12.625-3.388z" style="fill:#29589f"/><path d="M14.716 48.805l6.855-1.853-6.8-3.917H4.685z" style="fill:#5290db"/><path d="M22.814 1.3h-.556V.744a.741.741 0 10-1.482 0V1.3h-.556a.741.741 0 100 1.482h.559v.556a.741.741 0 101.482 0v-.556h.556a.741.741 0 100-1.482z" class="f"/><path d="M47.719 47.613a2.6 2.6 0 01-2.091-2.038c0-.026-.026-.053-.053-.026a.026.026 0 00-.026.026 2.564 2.564 0 01-2.091 2.038c-.026 0-.053.026-.026.053a.026.026 0 00.026.026 2.6 2.6 0 012.091 2.038c0 .026.026.053.053.026a.026.026 0 00.026-.026 2.564 2.564 0 012.091-2.038c.026 0 .053-.026.026-.053a.026.026 0 00-.026-.026z" class="c"/><circle cx=".794" cy=".794" r=".794" transform="translate(52.668 49.201)" style="fill:#87d147"/><circle cx=".794" cy=".794" r=".794" transform="translate(27.79 3.15)" style="fill:#70d6f9"/><circle cx=".794" cy=".794" r=".794" class="c" transform="translate(3.441 3.679)"/><path d="M38.221 24.005a3.273 3.273 0 00-1.959.582.131.131 0 01-.185-.026.1.1 0 01-.026-.079v-2.2a.125.125 0 01.132-.132h4.473a.125.125 0 00.132-.132v-1.059a.125.125 0 00-.132-.132h-5.849a.125.125 0 00-.132.132v5.24a.125.125 0 00.132.132h1.162c.053 0 .106-.026.106-.079a1.965 1.965 0 011.853-1.006 1.721 1.721 0 011.879 1.906 1.814 1.814 0 01-1.906 2.064 1.767 1.767 0 01-1.879-1.614c0-.053-.079-.106-.132-.106h-1.191a.125.125 0 00-.132.132 3.127 3.127 0 003.388 2.911 3.093 3.093 0 003.282-3.361 2.854 2.854 0 00-3.017-3.176zM42.403 25.646c0 3.308 1.085 4.843 3.414 4.843s3.414-1.535 3.414-4.843c0-3.255-1.112-4.817-3.414-4.817-2.329-.026-3.414 1.509-3.414 4.817zm5.373 0c0 1.667-.159 3.467-1.985 3.467s-1.959-1.8-1.959-3.467.159-3.414 1.959-3.414c1.852-.027 1.985 1.747 1.985 3.414zM50.449 25.646c0 3.308 1.085 4.843 3.414 4.843s3.414-1.535 3.414-4.843c0-3.255-1.112-4.817-3.414-4.817-2.329-.026-3.414 1.509-3.414 4.817zm5.4 0c0 1.667-.159 3.467-1.985 3.467s-1.959-1.8-1.959-3.467.159-3.414 1.959-3.414c1.825-.027 1.985 1.667 1.985 3.414z"/><path d="M64.261 7.596H64.1l-1.27-4.79A3.482 3.482 0 0058.569.345L31.5 7.596h-28A3.485 3.485 0 000 11.063v29.14a3.49 3.49 0 003.494 3.494h.159l1.27 4.79a3.482 3.482 0 004.261 2.461l27.075-7.252h28.028a3.49 3.49 0 003.494-3.494V11.063a3.525 3.525 0 00-3.52-3.467zm-5.346-5.981a2.148 2.148 0 012.647 1.535l1.191 4.446H36.63zm-33.64 25.036a4.151 4.151 0 01-1.112.926.437.437 0 01-.5-.026l-2.382-1.906a2.821 2.821 0 000-3.308l2.382-1.906a.437.437 0 01.5-.026 4.154 4.154 0 011.537 5.664 6.329 6.329 0 01-.423.582zm-3.917 2.673l-1.112-2.805a.026.026 0 00.026-.026l2.567 2.064a1.813 1.813 0 001.509.344 1.56 1.56 0 01-2.991.423zM25.3 43.696l.4 1.456-3.573.953-.662-2.408zm-10.505 4.393l-7.623-4.367h7.437l5.24 3.017zM1.323 22.443l14.5 14.5v4.927l-14.5-14.5zm0-7.093l9.131 9.13A5.538 5.538 0 0012.201 28c.106 1.429.476 2.7 1.747 3.335a2.882 2.882 0 001.879.238v3.547l-14.5-14.53zm12.466 5.055a.525.525 0 01.556 0l2.382 1.906a2.821 2.821 0 000 3.308l-2.382 1.906a.439.439 0 01-.556 0 4.165 4.165 0 01-1.429-5.69 4.105 4.105 0 011.429-1.43zm6.8 25.223l-3.335-1.906h2.832zm-5.424-17.071l2.567-2.064c.026 0 .026.026.053.026l-1.112 2.805a1.557 1.557 0 01-2.991-.423 1.873 1.873 0 001.482-.344zm4.738-5.77a1.487 1.487 0 01.291 2.091 1.517 1.517 0 01-.291.291 1.493 1.493 0 11-1.8-2.382 1.434 1.434 0 011.797 0zm-18.58 6.458l13.154 13.154h-5.24l-7.914-7.913zM17.15 42.373V30.86a3.323 3.323 0 00.741-1.059L19 26.996l1.112 2.805a2.953 2.953 0 00.741 1.059v11.513zm3.705-21.411l-.582.476a2.859 2.859 0 00-2.541 0l-.582-.476V8.919h3.705zm-5.028-6.882l-5.161-5.161h5.161zm-7.04-5.161l7.04 7.04v3.97l-.662-.529a1.85 1.85 0 00-1.482-.344L3.546 8.919zm-6.643.45l10.322 10.322a5.551 5.551 0 00-1.906 3.017l-9.237-9.237v-2.408a2.144 2.144 0 01.821-1.694zm-.82 30.86v-3.864l6.034 6.034H3.494a2.2 2.2 0 01-2.17-2.17zM8.84 49.68a2.148 2.148 0 01-2.647-1.535l-1.112-4.1 7.887 4.526zm18.13-4.843l-.291-1.112h4.473zm39.462-4.605a2.18 2.18 0 01-2.17 2.17H22.179V31.574a2.961 2.961 0 001.906-.238c1.27-.635 1.614-1.906 1.72-3.335a5.475 5.475 0 00.318-7.728l-.079-.079a5.114 5.114 0 00-1.217-.926 1.8 1.8 0 00-2.011.132l-.662.529V8.919h42.08a2.18 2.18 0 012.17 2.17v29.14z"/><path d="M45.814 17.838a.655.655 0 00.662-.662v-3.122a.662.662 0 10-1.323 0v3.123a.655.655 0 00.661.661zM42.399 18.342a.658.658 0 001.138-.662l-1.562-2.726a.658.658 0 10-1.138.662zM48.354 18.474a.653.653 0 00.9-.238l1.562-2.726a.658.658 0 10-1.138-.662l-1.562 2.726a.659.659 0 00.238.9zM51.372 33.454H40.256a.662.662 0 000 1.323h11.116a.662.662 0 000-1.323zM48.646 36.18h-5.637a.662.662 0 000 1.323h5.637a.662.662 0 100-1.323z"/></g></svg>