<svg xmlns="http://www.w3.org/2000/svg" width="15.851" height="15.851" viewBox="0 0 15.851 15.851"><defs><style>.a{fill:#2a4d9c;}</style></defs><path class="a" d="M235.989,363.328a.66.66,0,1,1-.66-.66A.66.66,0,0,1,235.989,363.328Zm0,0" transform="translate(-227.403 -351.44)"/><path class="a" d="M7.925,15.851a7.925,7.925,0,1,1,7.925-7.925A7.934,7.934,0,0,1,7.925,15.851Zm0-14.86A6.935,6.935,0,1,0,14.86,7.925,6.942,6.942,0,0,0,7.925.991Zm0,0"/><path class="a" d="M168.139,92.432a.5.5,0,0,1-.5-.5v-.667a1.489,1.489,0,0,1,.992-1.4,2.049,2.049,0,0,0,1.32-1.729,1.816,1.816,0,1,0-3.633,0,.5.5,0,0,1-.991,0,2.807,2.807,0,1,1,5.614,0,3.039,3.039,0,0,1-1.981,2.664.5.5,0,0,0-.331.468v.666A.5.5,0,0,1,168.139,92.432Zm0,0" transform="translate(-160.214 -82.69)"/></svg>