<svg xmlns="http://www.w3.org/2000/svg" width="56" height="56"><defs><style>.b{fill:#333}.c{fill:#ff0808;stroke:#ff0808;stroke-width:.5px}</style></defs><g transform="translate(-.494)"><circle cx="28" cy="28" r="28" transform="translate(.494)" fill="#e2e2e2"/><path class="b" d="M33.163 37.752l-3.506 1.768a3.067 3.067 0 00-2.604-1.468h-3.358a3.437 3.437 0 01-1.494-.335l-.347-.164a6.124 6.124 0 00-5.525.088v-.611a.59.59 0 00-.562-.595h-2.98a.567.567 0 00-.533.595v8.082a.569.569 0 00.533.6h2.976a.593.593 0 00.562-.6v-.33l.893-.51a1.546 1.546 0 011.148-.158l5.753 1.446.037.008a6.216 6.216 0 001.105.1 6.3 6.3 0 002.785-.648.531.531 0 00.069-.04l8.131-5.583a.562.562 0 00.163-.753 2.443 2.443 0 00-3.246-.892zm-17.958 6.833h-1.826v-7.026h1.826zm12.313-.557a5.164 5.164 0 01-3.138.437l-5.735-1.441a2.664 2.664 0 00-1.98.272l-.335.191v-4.535a5 5 0 015.035-.382l.347.16a4.574 4.574 0 001.983.447h3.358a1.909 1.909 0 011.852 1.405h-4.876a.562.562 0 000 1.124h5.521a.569.569 0 00.562-.571 3.115 3.115 0 00-.05-.551l3.615-1.834.013-.008a1.32 1.32 0 011.4.088zm0 0M44.041 10.368h-4.39a.533.533 0 00-.562.527v.33l-.893.51a1.544 1.544 0 01-1.148.158l-5.749-1.446-.037-.007a6.3 6.3 0 00-3.891.549.575.575 0 00-.069.04l-8.13 5.583a.562.562 0 00-.164.753 2.442 2.442 0 003.251.894l3.506-1.768a3.067 3.067 0 002.6 1.465h3.359a3.443 3.443 0 011.494.335l.346.164a6.154 6.154 0 002.683.616 6.2 6.2 0 002.842-.7v.61a.59.59 0 00.562.594h4.386a.567.567 0 00.533-.594v-8.086a.509.509 0 00-.533-.527zm-9.982 7.072l-.346-.16a4.579 4.579 0 00-1.983-.447h-3.359a1.908 1.908 0 01-1.852-1.405h4.876a.562.562 0 100-1.124h-5.522a.569.569 0 00-.562.571 3.116 3.116 0 00.05.551l-3.616 1.832-.013.008a1.32 1.32 0 01-1.4-.088l7.572-5.2a5.164 5.164 0 013.139-.437l5.734 1.441a2.665 2.665 0 001.98-.272l.335-.192v4.538a5 5 0 01-5.033.384zm9.392 1.008h-3.232v-6.956h3.232zm0 0"/><path class="b" d="M41.857 17.98a1.616 1.616 0 10-1.616-1.616 1.616 1.616 0 001.616 1.616zm0-2.108a.492.492 0 11-.492.492.492.492 0 01.492-.492zm0 0"/><path class="c" d="M31.338 24.331a.316.316 0 10.316.316.316.316 0 00-.316-.316z"/><path class="c" d="M34.98 23.013a3.891 3.891 0 00-2.946-1.315 4.572 4.572 0 00-3.305 1.4 5.6 5.6 0 00-.717.892 5.6 5.6 0 00-.717-.892 4.572 4.572 0 00-3.305-1.4 4.168 4.168 0 00-4.068 4.39c0 3.221 3.413 5.933 7.884 9.807a.316.316 0 00.414 0c4.481-3.883 7.884-6.591 7.884-9.807a4.6 4.6 0 00-1.124-3.075zm-6.967 12.226c-4.222-3.653-7.459-6.277-7.459-9.151a3.529 3.529 0 013.437-3.755 3.9 3.9 0 012.84 1.2 4.712 4.712 0 01.891 1.231.316.316 0 00.288.186.317.317 0 00.288-.186 4.713 4.713 0 01.896-1.231 3.9 3.9 0 012.84-1.2 3.529 3.529 0 013.437 3.758c.001 2.936-3.449 5.68-7.458 9.148z"/><path class="c" d="M32.44 25.458a.316.316 0 10-.56.294 2.93 2.93 0 01.323 1.338 5.035 5.035 0 01-1.368 3.05.316.316 0 00.494.395 5.607 5.607 0 001.511-3.45 3.524 3.524 0 00-.4-1.627z"/></g></svg>