<svg xmlns="http://www.w3.org/2000/svg" width="56" height="56"><defs><style>.b{fill:#333}</style></defs><g><circle cx="28" cy="28" r="28" fill="#e2e2e2"/><circle class="b" cx=".676" cy=".676" transform="rotate(-4.069 386.852 -236.505)" r=".676"/><circle class="b" cx=".676" cy=".676" transform="translate(22.399 26.797)" r=".676"/><circle class="b" cx=".676" cy=".676" transform="translate(30.358 27.249)" r=".676"/><circle class="b" cx=".676" cy=".676" transform="translate(34.961 27.249)" r=".676"/><path class="b" d="M35.013 30.136a.565.565 0 00-.77.211 1.044 1.044 0 01-1.817 0 .565.565 0 10-.981.559 2.173 2.173 0 003.778 0 .564.564 0 00-.21-.77z"/><path class="b" d="M40.471 28.571a2.165 2.165 0 00-1.222-2.791 1.424 1.424 0 00-.439-.069v-2.019a3.3 3.3 0 00-2.719-3.245 2.776 2.776 0 00-5.546.006 3.3 3.3 0 00-2.686 3.239v2.019a1.413 1.413 0 00-.439.069 1.806 1.806 0 00-.373.17 1.823 1.823 0 00-.359-.162 1.377 1.377 0 00-.439-.068v-2.688a2.975 2.975 0 00-2.972-2.972H18.27a2.975 2.975 0 00-2.972 2.972v2.688a1.369 1.369 0 00-.439.068 1.908 1.908 0 00-1.174 1.118 2.424 2.424 0 00-.047 1.674 3.133 3.133 0 001.661 1.86v1.135a5.476 5.476 0 1010.951 0v-1.134a2.648 2.648 0 00.807-.536 2.512 2.512 0 00.909.569 5.475 5.475 0 0010.742 0 3.088 3.088 0 001.765-1.9zm-7.153-9.642a1.65 1.65 0 011.638 1.466h-3.275a1.65 1.65 0 011.638-1.462zm-4.33 4.762a2.171 2.171 0 012.168-2.168h4.358a2.171 2.171 0 012.168 2.168v.94a3.942 3.942 0 01-.476.029 4 4 0 01-3.259-1.683.7.7 0 00-1.144.019 4.038 4.038 0 01-3.339 1.8 3.94 3.94 0 01-.476-.029v-1.074zm-10.718-2.5h5.007a1.845 1.845 0 011.843 1.843v.779a3.282 3.282 0 00-2.168-.816h-4.358a3.282 3.282 0 00-2.168.816v-.779a1.845 1.845 0 011.844-1.842zm6.851 10.386a4.347 4.347 0 11-8.694 0v-.4a3.922 3.922 0 001.777 2.3 1.044 1.044 0 00.8.109 1.011 1.011 0 00.624-.484 1.316 1.316 0 012.3 0 1.011 1.011 0 00.624.484 1.044 1.044 0 00.8-.109 3.923 3.923 0 001.777-2.3v.4zm.968-2.33a.707.707 0 00-.954-.128 2.644 2.644 0 00-1.059 1.594 2.787 2.787 0 01-1.224 1.75 2.444 2.444 0 00-4.154 0 2.787 2.787 0 01-1.224-1.75 2.644 2.644 0 00-1.058-1.593.564.564 0 00-.327-.1.787.787 0 00-.585.261 2.174 2.174 0 01-.792-1.043 1.3 1.3 0 01.017-.894.8.8 0 01.48-.475c.073-.024.1-.032.195.105a.564.564 0 001.024-.327v-.348a2.17 2.17 0 012.168-2.168h4.358a2.171 2.171 0 012.168 2.168v.348a.564.564 0 001.024.327c.06-.085.093-.114.126-.118a2.418 2.418 0 00-.071 1.723 2.912 2.912 0 00.175.418 1.969 1.969 0 01-.288.25zm11.562.686a4.346 4.346 0 01-8.629 0 .564.564 0 00-.532-.5c-.422-.021-1.025-.621-1.217-1.211a1.2 1.2 0 01.186-1.166l.019-.02a.724.724 0 01.293-.183c.073-.024.1-.032.195.105a.564.564 0 001.024-.327v-.73q.238.023.476.023a5.148 5.148 0 003.93-1.84 5.169 5.169 0 003.808 1.709c.158 0 .317-.008.476-.023v.865a.564.564 0 001.024.327c.1-.137.122-.129.2-.105a1.048 1.048 0 01.5 1.369c-.192.59-.794 1.19-1.217 1.211a.564.564 0 00-.538.497z"/><path class="b" d="M24.095 29.716a3.568 3.568 0 01-1.264-.5 1.708 1.708 0 00-1.458-.2q-.131.044-.261.1a.594.594 0 01-.675 0q-.129-.055-.261-.1a1.708 1.708 0 00-1.458.2 3.567 3.567 0 01-1.264.5.223.223 0 00-.07.413 3.579 3.579 0 00.412.207 3.536 3.536 0 002.605.065.691.691 0 00.24-.148.192.192 0 01.266 0 .694.694 0 00.24.148 3.536 3.536 0 002.605-.065 3.579 3.579 0 00.412-.207.223.223 0 00-.069-.413z"/><path class="b" d="M35.745 40.295l-6.331 4.914a3.556 3.556 0 01-2.17.744 3.508 3.508 0 01-2.17-.744l-6.331-4.914a17.437 17.437 0 01-6.746-13.775V15.95a.307.307 0 01.3-.306l1.925-.014a26.85 26.85 0 002.258-.11.564.564 0 10-.1-1.124c-.692.064-1.42.1-2.163.1l-1.92.019a1.439 1.439 0 00-1.424 1.435v10.57a18.566 18.566 0 007.183 14.667l6.331 4.914a4.666 4.666 0 005.723 0l6.331-4.914a.564.564 0 10-.692-.891z"/><path d="M42.195 14.517l-1.924-.014c-6.395-.046-9.328-2.295-10.293-3.259a10.464 10.464 0 01-1-1.154 2.14 2.14 0 00-1.723-.873h-.005a2.148 2.148 0 00-1.733.867 10.9 10.9 0 01-1.007 1.158 11.067 11.067 0 01-5.489 2.739.564.564 0 00.253 1.1 12.176 12.176 0 006.034-3.041 12.033 12.033 0 001.111-1.279 1.029 1.029 0 01.83-.416 1.021 1.021 0 01.824.415 11.6 11.6 0 001.1 1.279c1.063 1.063 4.271 3.54 11.083 3.59l1.925.014a.307.307 0 01.3.306v10.568a17.422 17.422 0 01-5.017 12.236.564.564 0 00.8.791 18.551 18.551 0 005.355-13.027V15.95a1.439 1.439 0 00-1.424-1.433z" fill="#ff0808"/><circle class="b" cx=".814" cy=".814" transform="translate(26.43 43.047)" r=".814"/><circle class="b" cx=".814" cy=".814" transform="translate(26.43 12.389)" r=".814"/><circle class="b" cx=".814" cy=".814" transform="translate(39.494 17.183)" r=".814"/><circle class="b" cx=".814" cy=".814" transform="translate(13.27 17.183)" r=".814"/></g></svg>