<svg xmlns="http://www.w3.org/2000/svg" width="51.002" height="51"><defs/><path d="M.002 0h51v51h-51z" fill="none"/><path class="b" d="M34.422 7.031a3.282 3.282 0 00-3.278 3.278v.593l-19.155 7.662a.821.821 0 00-.515.761v11.474a.819.819 0 00.515.761l19.155 7.662v.593a3.278 3.278 0 106.557 0V10.309a3.282 3.282 0 00-3.279-3.278zm1.639 32.783a1.639 1.639 0 01-3.278 0v-1.15a.819.819 0 00-.515-.761l-19.155-7.659V19.88l19.155-7.662a.821.821 0 00.515-.761v-1.148a1.639 1.639 0 113.278 0z"/><path class="b" d="M12.294 18.505H6.557a6.557 6.557 0 100 13.113h5.737a.819.819 0 00.82-.82V19.325a.82.82 0 00-.82-.82zm-.82 11.474H6.557a4.918 4.918 0 110-9.835h4.918v9.835zm30.584-8.155l-4.918-1.639a.82.82 0 00-1.079.778v8.2a.818.818 0 00.82.82.8.8 0 00.259-.043l4.918-1.639a.817.817 0 00.561-.777v-4.918a.82.82 0 00-.561-.782zm-1.079 5.1l-3.278 1.093v-5.921l3.278 1.093z"/><path class="b" d="M16.315 41.038l-.823-.824-2.4-9.614a.82.82 0 00-.795-.621h-6.56a.819.819 0 00-.8 1.007l3.285 13.933a.821.821 0 00.8.632.78.78 0 00.156-.016l6.155-1.188h.025a1.975 1.975 0 00.952-.52 1.967 1.967 0 00.013-2.785zm-1.165 1.618a.329.329 0 01-.152.085l-5.365 1.038-2.861-12.161h4.882l2.3 9.214a.82.82 0 00.216.381l.98.98a.324.324 0 01.094.232.329.329 0 01-.093.231zm29.108-18.414h4.918v1.639h-4.918zm-.424-7.257l4.098-2.46.843 1.406-4.098 2.46zm.008 16.156l.843-1.405 4.098 2.458-.843 1.406zM31.144 11.129h1.639v27.866h-1.639zM8.196 21.784h1.639v3.278H8.196zm-3.278 0h1.639v3.278H4.918z"/></svg>