<svg xmlns="http://www.w3.org/2000/svg" width="32" height="32"><defs/><path fill="#eceff1" d="M27.36 4.6A16.189 16.189 0 0016.06 0a15.884 15.884 0 00-13.8 23.784L0 32l8.447-2.2a16.749 16.749 0 007.621 1.929c14.177 0 21.234-17.152 11.272-27.076z"/><path fill="#4caf50" d="M16.089 29.001h-.029a13.434 13.434 0 01-7.22-2.125l-5 1.3 1.34-4.86-.319-.5a13.158 13.158 0 01-2.021-7.015c0-11.724 14.326-17.586 22.617-9.3 8.271 8.2 2.464 22.5-9.368 22.5z"/><path fill="#fafafa" d="M23.342 19.075l-.012.1c-.4-.2-2.356-1.156-2.72-1.288-.817-.3-.587-.048-2.156 1.749-.233.26-.465.28-.861.1a10.821 10.821 0 01-3.2-1.98 12.1 12.1 0 01-2.213-2.76c-.391-.675.427-.771 1.171-2.179a.733.733 0 00-.033-.7c-.1-.2-.9-2.16-1.229-2.941s-.649-.68-.9-.68a1.985 1.985 0 00-1.824.459c-2.152 2.365-1.609 4.805.232 7.4 3.619 4.736 5.547 5.608 9.072 6.819a5.516 5.516 0 002.507.161 4.1 4.1 0 002.688-1.9 3.3 3.3 0 00.24-1.9c-.1-.18-.36-.28-.76-.46z"/></svg>